<?xml version="1.0" encoding="utf-8"?>
<!-- Generator: Adobe Illustrator 27.7.0, SVG Export Plug-In . SVG Version: 6.00 Build 0)  -->
<svg version="1.1" xmlns="http://www.w3.org/2000/svg" xmlns:xlink="http://www.w3.org/1999/xlink" x="0px" y="0px"
	 viewBox="0 0 481.4 329" style="enable-background:new 0 0 481.4 329;" xml:space="preserve">
<style type="text/css">
	.st0{display:none;}
	.st1{display:inline;fill:#D5C1D9;}
	.st2{display:inline;fill:#855427;}
	.st3{display:inline;fill:#C27A39;}
	.st4{display:inline;fill:#CD8E55;}
	.st5{display:inline;fill:#D6A273;}
	.st6{display:inline;fill:#38B6FF;}
	.st7{display:inline;fill:#00629A;}
	.st8{display:inline;fill:#9B55BC;}
	.st9{display:inline;fill:#F9F9FA;}
	.st10{display:inline;}
	.st11{display:inline;opacity:0.2;}
	.st12{fill:#9B55BC;}
	.st13{opacity:0.4;}
	.st14{fill:#D6A273;}
	.st15{opacity:0.5;}
	.st16{fill:#FFFFFF;}
	.st17{fill:#38B6FF;}
	.st18{fill:#00629A;}
	.st19{display:inline;fill:#5E6E78;}
	.st20{fill:#C1E8FF;}
	.st21{display:inline;fill:#94A2AB;}
	.st22{display:inline;opacity:0.3;}
	.st23{display:inline;fill:#004973;}
	.st24{display:inline;fill:#001C4D;}
	.st25{display:inline;fill:#A5E093;}
	.st26{display:inline;fill:#7A8C97;}
	.st27{display:inline;fill:#FFFFFF;}
	.st28{display:inline;fill:#EBEEEF;}
	.st29{display:inline;fill:#AC71C7;}
	.st30{display:inline;fill:#DDC6E8;}
	.st31{fill:#4E2661;}
</style>
<g id="Shadow" class="st0">
	<ellipse transform="matrix(0.1277 -0.9918 0.9918 0.1277 -6.5505 430.95)" class="st1" cx="241.7" cy="219.2" rx="102" ry="239"/>
</g>
<g id="Desk" class="st0">
	<path class="st2" d="M19.6,201.2l3.1,11.1L323,299.4l103.3-68.1V222L19.6,201.2z"/>
	<path class="st3" d="M127.3,151.2L426.2,222L323,289.4L19.6,201.2L127.3,151.2z"/>
	<path class="st4" d="M330.7,284.7c-1.1,2.5-2.4,4.9-3.8,7.3c-1.3,2.4-2.7,4.8-4.2,7.1C325.2,294.1,327.8,289.3,330.7,284.7
		L330.7,284.7z"/>
	<path class="st4" d="M340.6,278.3c-1.1,2.5-2.4,4.9-3.8,7.3c-1.3,2.4-2.7,4.8-4.2,7.1C335.1,287.7,337.7,282.9,340.6,278.3
		L340.6,278.3z"/>
	<path class="st4" d="M350.5,271.8c-1.1,2.5-2.4,4.9-3.8,7.3c-1.3,2.4-2.6,4.8-4.2,7.1C344.9,281.3,347.6,276.5,350.5,271.8
		L350.5,271.8z"/>
	<path class="st4" d="M360.4,265.4c-1.1,2.5-2.4,4.9-3.8,7.3c-1.3,2.4-2.7,4.8-4.2,7.1C354.8,274.8,357.5,270,360.4,265.4
		L360.4,265.4z"/>
	<path class="st4" d="M370.2,259c-1.1,2.5-2.4,4.9-3.8,7.3c-1.3,2.4-2.7,4.8-4.2,7.1c1.1-2.5,2.4-4.9,3.8-7.3
		C367.3,263.6,368.7,261.3,370.2,259z"/>
	<path class="st4" d="M380.1,252.5c-1.1,2.5-2.4,4.9-3.8,7.3c-1.3,2.4-2.6,4.8-4.2,7.1C374.5,262,377.2,257.2,380.1,252.5
		L380.1,252.5z"/>
	<path class="st4" d="M389.9,246.1c-1.1,2.5-2.4,4.9-3.8,7.3c-1.3,2.4-2.7,4.8-4.2,7.1C384.4,255.5,387,250.7,389.9,246.1
		L389.9,246.1z"/>
	<path class="st4" d="M399.8,239.7c-1.1,2.5-2.4,4.9-3.8,7.3c-1.3,2.4-2.7,4.8-4.2,7.1c1.1-2.5,2.4-4.9,3.8-7.3
		C396.9,244.3,398.3,242,399.8,239.7z"/>
	<path class="st4" d="M409.7,233.2c-1.1,2.5-2.4,4.9-3.8,7.3c-1.3,2.4-2.7,4.8-4.2,7.1C404.1,242.7,406.8,237.9,409.7,233.2
		L409.7,233.2z"/>
	<path class="st4" d="M419.5,226.8c-1.1,2.5-2.4,4.9-3.8,7.3c-1.3,2.4-2.7,4.8-4.2,7.1c1.1-2.5,2.4-4.9,3.8-7.3
		C416.6,231.4,418,229.1,419.5,226.8z"/>
	<path class="st4" d="M426.2,226.1c-0.6,1.5-1.3,3-2.2,4.4c-0.7,1.5-1.6,2.9-2.6,4.2c0.6-1.5,1.3-3,2.2-4.4
		C424.4,228.8,425.3,227.4,426.2,226.1z"/>
	<path class="st4" d="M320.3,298.6c-0.6-0.5-1.2-1.1-1.7-1.7c-1-1.1-2.4-2.7-3.9-4.5c-1.5-1.8-2.7-3.4-3.6-4.7c-0.5-0.6-1-1.3-1.3-2
		c0.6,0.6,1.1,1.2,1.6,1.9l3.7,4.6l3.8,4.5C319.4,297.2,319.9,297.9,320.3,298.6z"/>
	<path class="st4" d="M306.4,294.6c-0.6-0.5-1.2-1.1-1.7-1.7c-1-1.1-2.4-2.7-3.9-4.4c-1.5-1.8-2.7-3.4-3.6-4.7
		c-0.5-0.6-1-1.3-1.3-2.1c0.6,0.6,1.1,1.2,1.6,1.9l3.7,4.6c1.4,1.7,2.7,3.2,3.8,4.5C305.4,293.2,305.9,293.9,306.4,294.6z"/>
	<path class="st4" d="M292.5,290.6c-0.6-0.5-1.2-1.1-1.7-1.7c-1-1.1-2.4-2.7-3.9-4.4c-1.5-1.8-2.7-3.4-3.6-4.7
		c-0.5-0.6-1-1.3-1.3-2.1c0.6,0.6,1.1,1.2,1.6,1.9l3.7,4.6l3.8,4.5C291.5,289.3,292,289.9,292.5,290.6z"/>
	<path class="st4" d="M278.6,286.6c-0.6-0.5-1.2-1.1-1.7-1.7c-1-1.1-2.4-2.7-3.9-4.5c-1.5-1.8-2.7-3.4-3.6-4.7c-0.5-0.6-1-1.3-1.3-2
		c0.6,0.6,1.1,1.2,1.6,1.9l3.7,4.6l3.8,4.5C277.6,285.3,278.1,286,278.6,286.6z"/>
	<path class="st4" d="M264.6,282.7c-0.6-0.5-1.2-1.1-1.7-1.7c-1-1.1-2.4-2.7-3.9-4.4c-1.5-1.8-2.7-3.4-3.6-4.7
		c-0.5-0.6-1-1.3-1.3-2.1c0.6,0.6,1.1,1.2,1.6,1.9l3.7,4.6c1.4,1.7,2.7,3.2,3.8,4.5C263.7,281.4,264.2,282,264.6,282.7z"/>
	<path class="st4" d="M250.7,278.7c-0.6-0.5-1.2-1.1-1.7-1.7c-1-1.1-2.4-2.7-3.9-4.4c-1.5-1.8-2.7-3.4-3.6-4.7
		c-0.5-0.6-1-1.3-1.3-2.1c0.6,0.6,1.1,1.2,1.6,1.9l3.7,4.6l3.8,4.5C249.8,277.4,250.3,278.1,250.7,278.7z"/>
	<path class="st4" d="M236.8,274.8c-0.6-0.5-1.2-1.1-1.7-1.7c-1-1.1-2.4-2.7-3.9-4.5c-1.5-1.8-2.7-3.4-3.6-4.7c-0.5-0.6-1-1.3-1.3-2
		c0.6,0.6,1.1,1.2,1.6,1.9l3.7,4.6l3.8,4.5C235.9,273.5,236.4,274.1,236.8,274.8z"/>
	<path class="st4" d="M222.9,270c-0.6-0.5-1.2-1.1-1.7-1.7c-1-1.1-2.4-2.7-3.9-4.4c-1.5-1.8-2.7-3.4-3.6-4.7c-0.5-0.6-1-1.3-1.3-2.1
		c0.6,0.6,1.1,1.2,1.6,1.9l3.7,4.6l3.8,4.5C221.9,268.7,222.4,269.4,222.9,270z"/>
	<path class="st4" d="M207.4,265.7c-0.6-0.5-1.2-1.1-1.8-1.7c-1-1.1-2.4-2.7-3.9-4.4c-1.5-1.8-2.7-3.4-3.6-4.7
		c-0.5-0.6-1-1.3-1.3-2.1c0.6,0.6,1.1,1.2,1.6,1.9l3.7,4.6c1.4,1.7,2.7,3.3,3.8,4.5C206.4,264.4,207,265.1,207.4,265.7z"/>
	<path class="st4" d="M191.9,261.4c-0.6-0.5-1.2-1.1-1.7-1.7c-1-1.1-2.4-2.7-3.9-4.4c-1.5-1.8-2.7-3.4-3.6-4.7c-0.5-0.6-1-1.3-1.3-2
		c0.6,0.6,1.1,1.2,1.6,1.9c1,1.3,2.3,2.8,3.7,4.6l3.8,4.5C190.9,260.1,191.5,260.7,191.9,261.4z"/>
	<path class="st4" d="M176.4,256.4c-0.6-0.5-1.2-1.1-1.7-1.7c-1-1.1-2.4-2.7-3.9-4.4c-1.5-1.8-2.8-3.5-3.7-4.7
		c-0.5-0.6-1-1.3-1.3-2.1c0.6,0.6,1.1,1.2,1.6,1.9l3.7,4.6l3.8,4.5C175.4,255.1,175.9,255.7,176.4,256.4z"/>
	<path class="st4" d="M160.7,252.1c-0.6-0.5-1.2-1.1-1.7-1.7c-1-1.1-2.4-2.7-3.9-4.4c-1.5-1.8-2.7-3.4-3.6-4.7
		c-0.5-0.6-1-1.3-1.3-2.1c0.6,0.6,1.1,1.2,1.6,1.9c1,1.3,2.3,2.9,3.7,4.6l3.8,4.5C159.8,250.7,160.3,251.4,160.7,252.1z"/>
	<path class="st4" d="M145,247.5c-0.6-0.5-1.2-1.1-1.7-1.7c-1-1.1-2.4-2.7-3.9-4.4c-1.5-1.8-2.7-3.4-3.6-4.7c-0.5-0.6-1-1.3-1.3-2
		c0.6,0.6,1.1,1.2,1.6,1.9l3.7,4.6l3.8,4.5C144.1,246.2,144.6,246.8,145,247.5z"/>
	<path class="st4" d="M129.9,243.2c-0.6-0.5-1.2-1.1-1.7-1.7c-1-1.1-2.4-2.7-3.9-4.4c-1.5-1.8-2.7-3.4-3.6-4.7c-0.5-0.6-1-1.3-1.3-2
		c0.6,0.6,1.1,1.2,1.6,1.9c1,1.3,2.3,2.8,3.7,4.6l3.8,4.5C129,241.9,129.5,242.6,129.9,243.2z"/>
	<path class="st4" d="M114.4,239.2c-0.6-0.5-1.2-1.1-1.7-1.7c-1-1.1-2.4-2.7-3.9-4.4c-1.5-1.8-2.7-3.4-3.6-4.7c-0.5-0.6-1-1.3-1.3-2
		c0.6,0.6,1.1,1.2,1.6,1.9l3.7,4.6l3.8,4.5C113.5,237.9,114,238.5,114.4,239.2z"/>
	<path class="st4" d="M100.8,234.6c-0.6-0.5-1.2-1.1-1.7-1.7c-1-1.1-2.4-2.7-3.9-4.4c-1.5-1.8-2.7-3.4-3.6-4.7
		c-0.5-0.6-0.9-1.3-1.3-2.1c0.6,0.6,1.1,1.2,1.6,1.9l3.7,4.6l3.8,4.5C99.9,233.3,100.4,233.9,100.8,234.6z"/>
	<path class="st4" d="M87.2,230.1c-0.6-0.5-1.2-1.1-1.7-1.7c-1-1.1-2.4-2.7-3.9-4.5c-1.5-1.8-2.7-3.4-3.6-4.7c-0.5-0.6-1-1.3-1.3-2
		c0.6,0.6,1.1,1.2,1.6,1.9l3.7,4.6l3.8,4.5C86.3,228.8,86.8,229.4,87.2,230.1z"/>
	<path class="st4" d="M74.9,226.7c-0.6-0.5-1.2-1.1-1.7-1.7c-1-1.1-2.4-2.7-3.9-4.4c-1.5-1.8-2.7-3.4-3.6-4.7c-0.5-0.6-1-1.3-1.3-2
		c0.6,0.6,1.1,1.2,1.6,1.9l3.7,4.6l3.8,4.5C73.9,225.4,74.4,226,74.9,226.7z"/>
	<path class="st4" d="M60.7,222.9c-0.6-0.5-1.2-1.1-1.7-1.7c-1-1.1-2.4-2.7-3.9-4.5c-1.5-1.8-2.7-3.4-3.6-4.7c-0.5-0.6-1-1.3-1.3-2
		c0.6,0.6,1.1,1.2,1.6,1.9l3.7,4.6l3.8,4.5C59.8,221.5,60.3,222.2,60.7,222.9z"/>
	<path class="st4" d="M47.9,219.1c-0.6-0.5-1.2-1.1-1.8-1.7c-1-1.1-2.4-2.7-3.9-4.4c-1.5-1.8-2.7-3.4-3.6-4.7
		c-0.5-0.6-1-1.3-1.4-2.1c0.6,0.6,1.1,1.2,1.6,1.9l3.7,4.6l3.8,4.5C46.9,217.8,47.4,218.4,47.9,219.1z"/>
	<path class="st4" d="M33.3,214.6c-0.6-0.5-1.2-1.1-1.7-1.7c-1-1.1-2.4-2.7-3.9-4.4c-1.5-1.8-2.7-3.4-3.6-4.7
		c-0.5-0.6-1-1.3-1.4-2.1c0.6,0.6,1.1,1.2,1.6,1.9l3.7,4.6l3.8,4.5C32.3,213.3,32.8,213.9,33.3,214.6z"/>
</g>
<g id="Chair" class="st0">
	<path class="st5" d="M310.3,128.2l-1.1,0.6c-0.6,14.2-1.2,28.3-1.8,42.5c-0.3,7.8-0.6,15.8,2.3,23.4l46.7,12.4
		c1.9-3.2,3-6.7,3.3-10.4c1.5-15.7,2-31.4,1.4-47.2c-0.1-4.9,0.3-16.4-4.2-19.4c-7.7-5.1-14.7-3.4-22.5-5.1
		c-7.7-1.7-15.7,2.4-23.6,2.4"/>
</g>
<g id="RightArm" class="st0">
	<path class="st6" d="M287.8,178.1L274,156.3c-0.6,0-40.6,8-40.6,8s-27.9,2.4-28.6,2.9c-0.7,0.5-9.2,16.2-9.2,16.2
		c5.6,0.9,7.9-6.3,7.9-6.3l5.6-3.2l6.9,0.8c-2,0.9-3.6,1.8-4.1,2.4c-1.5,1.8-2.3,5.4-1.4,5.5c0.9,0.1,2.6-2.5,6.9-3.1
		c4.3-0.6,15.3-2.9,15.3-2.9l3.9,0.5L287.8,178.1z"/>
	<path class="st7" d="M222.9,171.9c-1.3,0.6-2.6,1.2-3.9,1.7c-1.3,0.6-2.6,1.2-3.9,1.7c1.1-0.9,2.4-1.6,3.7-2.1
		C220.1,172.5,221.5,172.1,222.9,171.9z"/>
</g>
<g id="Shirt" class="st0">
	<path class="st8" d="M284.9,90.9c0,0-11.4,6.6-14.9,12.1c-3.5,5.5-2.2,20.9-2.2,20.9c-1.4,5.4-2.2,10.9-2.4,16.4
		c0,8.9,6.9,15.4,8.6,20.2c1.8,4.8,0.5,26.6,0.5,26.6l65,1.6v-44.8l8.6,0.8c0,0,2.8-43.7-10.3-49.3c-13.1-5.5-28.8-11-28.8-11
		L284.9,90.9z"/>
	<path class="st9" d="M348.5,131.8c-0.1,0.3-0.3,0.5-0.5,0.7c-0.6,0.7-1.2,1.2-2,1.6c-1.2,0.6-2.5,1-3.9,1.1
		c-1.8,0.1-3.6-0.2-5.3-0.8c-2-0.8-4-1.7-5.8-2.8c-2.1-1.3-4.3-2.3-6.6-3.2c-2.6-0.8-5.3-0.9-8-0.3c-2.8,0.8-5.5,1.8-8.2,3.1
		c-2.6,1.3-5.4,2.3-8.3,3.1c-2.7,0.6-5.5,0.5-8.2-0.4c-2.3-0.9-4.5-2.1-6.6-3.5c-1.8-1.2-3.6-2.3-5.5-3.3c-1.6-0.8-3.3-1.3-5.1-1.5
		c-1.3-0.1-2.7,0-3.9,0.3c-1.1,0.3-2.1,0.8-3,1.5c0.2-0.2,0.4-0.4,0.7-0.6c0.7-0.5,1.5-0.9,2.3-1.1c1.3-0.4,2.7-0.5,4-0.4
		c1.8,0.2,3.5,0.7,5.1,1.5c1.9,1,3.8,2,5.6,3.2c2,1.4,4.2,2.5,6.5,3.4c1.9,0.6,3.9,0.9,5.9,0.7c0.7-0.1,1.4-0.2,2.1-0.3
		c2.8-0.7,5.6-1.8,8.2-3c2.6-1.3,5.4-2.3,8.2-3.1c2.7-0.7,5.5-0.6,8.2,0.3c2.3,0.9,4.6,1.9,6.7,3.2c1.8,1.1,3.8,2,5.8,2.8
		c1.6,0.6,3.4,0.9,5.2,0.8c1.3-0.1,2.6-0.4,3.8-1c0.7-0.4,1.4-0.9,2-1.5C348.4,132,348.5,131.7,348.5,131.8z"/>
	<path class="st9" d="M346.5,115.5c0,0.1-0.1,0.1-0.2,0.2c-0.1,0.1-0.3,0.2-0.5,0.4c-0.7,0.5-1.4,0.8-2.2,1c-2,0.6-5.3,0.5-8.8-1
		c-1.7-0.7-3.6-1.7-5.5-2.8c-2-1.1-4.2-2-6.5-2.4c-2.6-0.4-5.2-0.3-7.7,0.2c-2.7,0.6-5.4,1.3-8,2.3c-2.7,1-5.3,2-7.9,2.8
		c-2.5,0.8-5.1,1.2-7.7,1.3c-4.5-0.1-8.8-1.2-12.8-3.3c-2.7-1.4-5.2-2.9-7.6-4.7c-0.8-0.6-1.5-1.1-1.9-1.5l-0.5-0.4
		c-0.1-0.1-0.2-0.1-0.2-0.2c0,0,0.1,0,0.2,0.1l0.5,0.4l2,1.4c2.4,1.7,4.9,3.3,7.6,4.6c3.9,2,8.2,3.1,12.6,3.1
		c2.6-0.1,5.1-0.5,7.6-1.3c2.6-0.8,5.2-1.8,7.9-2.8c2.6-1,5.3-1.8,8.1-2.4c2.6-0.5,5.2-0.6,7.8-0.2c2.3,0.5,4.6,1.3,6.6,2.5
		c2,1,3.7,2,5.5,2.8c3.4,1.5,6.6,1.6,8.6,1.1C344.6,116.6,345.6,116.1,346.5,115.5z"/>
	<path class="st9" d="M317.3,157.8c-0.1,0.1-0.3,0.2-0.5,0.2c-0.3,0.1-0.7,0.3-1.3,0.6c-1.6,0.7-3.3,1.3-5.1,1.7
		c-2.6,0.7-5.3,0.6-7.9-0.2c-2.9-1-5.5-3-8.4-4.9c-2.6-1.8-5.7-3-8.8-3.6c-1.4-0.2-2.8-0.3-4.2-0.3c-1.2,0-2.4,0.2-3.6,0.4
		c-1.7,0.3-3.4,0.9-5,1.6c-1.1,0.5-1.7,0.9-1.8,0.8c0.1-0.1,0.3-0.2,0.4-0.3c0.4-0.3,0.8-0.5,1.3-0.7c1.6-0.8,3.3-1.4,5.1-1.8
		c1.2-0.3,2.4-0.4,3.7-0.5c1.4,0,2.8,0,4.2,0.2c3.2,0.5,6.3,1.7,9,3.6c2.9,1.9,5.5,3.9,8.3,4.9c2.5,0.8,5.1,1,7.7,0.3
		c1.7-0.4,3.4-0.9,5.1-1.6l1.4-0.5C317,157.8,317.1,157.8,317.3,157.8z"/>
	<path class="st9" d="M317.2,173.8c0,0-0.6-0.1-1.7-0.3c-1.5-0.2-3.1-0.2-4.6-0.1c-2.3,0.2-4.5,0.6-6.8,1.3
		c-2.5,0.7-5.2,1.6-8.2,2.4c-2.7,0.8-5.6,1.2-8.4,1.3c-2.3,0-4.7-0.5-6.8-1.4c-1.5-0.6-2.8-1.5-3.9-2.6c-0.3-0.3-0.6-0.6-0.8-1
		c-0.1-0.1-0.2-0.2-0.2-0.4c0,0,0.4,0.5,1.2,1.2c1.1,1.1,2.5,1.9,3.9,2.5c2.1,0.8,4.4,1.3,6.7,1.2c2.8-0.1,5.6-0.5,8.3-1.3
		c2.9-0.8,5.6-1.7,8.2-2.4c2.2-0.6,4.5-1,6.9-1.2c1.6-0.1,3.1,0,4.7,0.3c0.4,0.1,0.8,0.2,1.2,0.3C316.9,173.7,317,173.7,317.2,173.8
		z"/>
	<path class="st10" d="M317.1,153.9c-0.1,0-0.2-6.1-0.2-13.7c0-7.5,0.1-13.7,0.2-13.7c0.1,0,0.2,6.1,0.2,13.7
		C317.3,147.8,317.2,153.9,317.1,153.9z"/>
	<path class="st10" d="M311,162.2c-0.1,0-0.2,0.1-0.3,0.1c-0.2,0-0.6,0.1-1,0c-1.3,0-2.5-0.1-3.7-0.4c-4.1-0.8-7.9-2.8-10.8-5.8
		c-2.9-3-4.9-6.8-5.5-10.9c-0.2-1.2-0.3-2.5-0.3-3.7c0-0.4,0.1-0.8,0.1-1c0-0.1,0-0.2,0.1-0.4c0,1.7,0.2,3.4,0.5,5.1
		c0.8,4,2.7,7.7,5.6,10.6c2.9,2.9,6.5,4.9,10.5,5.8C307.6,162,309.3,162.2,311,162.2z"/>
	<g transform="matrix(1.523085, 0, 0, 1.523085, -120.256294, -288.336456)" class="st11">
		<path d="M278.3,262.7c-1.2,1.4-2.4,2.9-3,4.7c-0.6,1.7-0.6,3.8,0.5,5.3c1.2,1.6,3.5,2.2,5.5,1.8c2-0.4,3.7-1.6,5.3-2.8
			c0.8-0.6,1.7-1.3,2.7-1.3c0.6,0.1,1.2,0.2,1.7,0.4c1.6,0.3,3.3-0.8,4.2-2.1c0.9-1.4,1.3-3,1.9-4.6c0.5-1.6,1.2-3.2,2.6-4.2
			c1.2-0.9,3-1.3,3.7-2.6c1-1.7-0.3-3.9-2.1-4.7c-1.8-0.8-3.8-0.5-5.7-0.2"/>
	</g>
	<g transform="matrix(1.523085, 0, 0, 1.523085, -120.256294, -288.336456)" class="st11">
		<path d="M281.3,295.6c0.1,0.2,0,0.5-0.5,0.9c-0.7,0.5-1.4,0.9-2.3,1c-1.2,0.2-2.5,0.1-3.7-0.3c-1.4-0.5-2.7-1.4-3.7-2.5
			c-1-1.1-1.7-2.3-2.3-3.6c-0.4-1-0.8-2.1-1-3.2c-0.3-1.9-0.3-3,0.1-3.1s1,0.9,1.8,2.5c0.8,1.6,1.8,3.8,3.4,5.5
			c0.7,0.8,1.6,1.5,2.6,2c0.8,0.4,1.7,0.7,2.6,0.8C280,295.6,281,295.2,281.3,295.6z"/>
	</g>
	<path class="st10" d="M348.2,144.6c0,0.1-7-0.4-15.6-1.2c-8.6-0.8-15.6-1.5-15.6-1.6c0-0.1,7,0.4,15.6,1.2
		C341.3,143.7,348.2,144.5,348.2,144.6z"/>
</g>
<g id="Head">
	<g id="HairLeft">
		<path d="M253.3,45.5c1.4,15.5,2.5,32-4.8,45.7c1.6-0.3,3.1-1.3,4-2.6c-0.6,5.1-1.2,10.3-0.4,15.4c0.8,5.1,3.4,10.1,7.7,12.9
			c0.1-0.6,0.1-1.3,0.2-1.9c1.7,10.9,11.3,20.1,22.3,21.3c4.7,0.5,10.2-0.7,12.7-4.8c1.9-3.1,1.7-7,1.4-10.6l-5.9-70.6
			c-0.6-6.6-1.2-13.5-5-18.9c-2.1-3.1-5.1-5.5-8.6-6.8c-3.5-1.4-7.3-1.7-11-0.9c-3.7,0.8-7,2.7-9.6,5.4c-2.6,2.7-4.3,6.1-4.9,9.8"/>
	</g>
	<!-- <g id="Pencil">
		<path class="st12" d="M247.9,69.3l14.7-8.9c0.3-0.2,0.6-0.2,1-0.1c0.3,0.1,0.6,0.3,0.8,0.6c0.2,0.3,0.2,0.6,0.1,1
			c-0.1,0.3-0.3,0.6-0.6,0.8l-14.7,8.9L247.9,69.3z"/>
		<g transform="matrix(1.523085, 0, 0, 1.523085, -120.256294, -288.336456)" class="st13">
			<path d="M242.3,235.7l9.6-5.8l-0.2-0.4l-9.6,5.8L242.3,235.7z"/>
		</g>
		<path class="st14" d="M249.2,71.4l-3.7,0.8l2.4-3L249.2,71.4z"/>
		<g transform="matrix(1.523085, 0, 0, 1.523085, -120.256294, -288.336456)" class="st15">
			<path class="st16" d="M242.6,236.2l-2.5,0.5l1.6-1.9L242.6,236.2z"/>
		</g>
		<path d="M246.7,72l-0.4-0.7l-0.8,1L246.7,72z"/>
	</g> -->
	<g id="Face">
		<path class="st17" d="M271.1,27.6c-5.1,1.7-9.3,5.2-11.8,9.9c-2.5,4.7-3.1,10.2-1.7,15.3c2.3,8.3,4.9,17.2,6.9,22.4
			c4.7,12.1,14.6,11.6,14.6,11.6s1.9,7.8,3.5,15.2c1.5,7.1,9,11.6,16.6,10.1c7.5-1.5,12.4-8.3,11-15.3l-12.4-54.2
			c-0.6-2.8-1.9-5.5-3.6-7.8c-1.7-2.3-3.9-4.2-6.4-5.6c-2.5-1.4-5.3-2.3-8.2-2.6C276.7,26.4,273.8,26.7,271.1,27.6z"/>
		<path class="st18" d="M279.1,86.6c5.9-1.2,11.4-4,15.8-8.1c0,0-2.2,9.5-14.9,11L279.1,86.6z"/>
	</g>
	<g id="HairRight">
		<path d="M296.7,22.3c3.8,3.4,6.8,6,10.9,8.6c4.1,2.6,8.3,5.6,9.8,10.2c1.1,3.3,0.7,7.3,2.9,10c1.9,2.3,5.1,3,7.7,4.4
			c2.3,1.3,4.2,3.1,5.6,5.4c1.3,2.3,2.1,4.9,2.1,7.5c0,3.4-1.2,7,0.4,9.9c1.4,2.6,4.5,3.8,6,6.3c1.5,2.5,1.2,5.4,0.8,8.2
			c-0.7,4.2-2.3,8.8-6.1,10.8c-1.3,0.6-2.7,1-4.2,1c-1.5,0-2.9-0.2-4.2-0.8c-2.7-1.1-5.1-2.8-7-5c-3.9-4-7-8.7-9-14
			c-2.4-6.2-3.2-12.9-4.4-19.5c-2.1-12.1-5.4-23.9-9.8-35.3C297,27.3,295,24.8,296.7,22.3"/>
		<path d="M328.4,75.2c0,0,0.2-0.2,0.7-0.4c0.6-0.4,1.3-0.8,1.8-1.3c0.9-0.7,1.8-1.6,2.5-2.5c0.9-1.3,1.6-2.7,1.8-4.3
			c0.2-1.9-0.2-3.8-1.3-5.3c-0.6-0.9-1.4-1.5-2.4-1.9c-1.1-0.4-2.2-0.5-3.3-0.5c-1.2,0-2.4-0.3-3.5-0.9c-1.1-0.7-1.9-1.8-2.2-3.1
			c-0.4-1.3-0.5-2.6-0.3-3.9c0.1-1.3,0.4-2.6,0.6-4c0.2-1.3,0.2-2.6,0-3.9c-0.3-1.2-0.8-2.4-1.5-3.4c-1.5-1.9-3.3-3.5-5.5-4.6
			c-2-1.1-4.1-2-5.9-2.9c-4.2-2.2-8.1-4.9-11.6-8.1c-0.7-0.7-1.3-1.2-1.6-1.6l-0.4-0.4c-0.1-0.1-0.1-0.2-0.1-0.2l0.2,0.1l0.4,0.4
			c0.4,0.4,0.9,0.8,1.7,1.5c2.1,1.9,4.3,3.5,6.6,5.1c1.6,1.1,3.3,2,5,2.9c1.8,1,3.9,1.8,6,2.9c2.2,1.1,4.2,2.7,5.7,4.7
			c0.8,1.1,1.3,2.3,1.6,3.6c0.2,1.3,0.2,2.7,0,4c-0.2,1.3-0.4,2.6-0.6,3.9c-0.1,1.3,0,2.5,0.3,3.8c0.3,1.2,1,2.2,2,2.9
			c1,0.6,2.2,0.8,3.3,0.8c1.1,0,2.3,0.2,3.4,0.6c1,0.4,1.9,1.2,2.5,2.1c1.1,1.6,1.6,3.6,1.4,5.6c-0.3,1.6-0.9,3.1-1.9,4.4
			c-0.7,1-1.6,1.8-2.5,2.5c-0.6,0.5-1.2,0.9-1.9,1.3c-0.2,0.1-0.4,0.2-0.5,0.3C328.6,75.1,328.5,75.2,328.4,75.2z"/>
		<path d="M330.4,92.3c0,0-6.8-7.4-6.2-16c0.5-8.5-2.1-14.1-6.9-16c-3.4-1.4-4.7-4.8-5.2-7.7c-0.8-4.8-2.2-9.5-4.2-14
			c-3-6.4-6.9-13-12.4-17.2c-7.2-5.4-18.4-9-25.3-3.3c-3.2,2.6-5.1,3.1-8,7.6c0,0-3.5,1.2-5.2,2c-6.1,2.8-8.4,10.8-7.7,16
			c1.5,12.1,8.8,13.6,11.7,21.3c0,0-3.4-16.8-3.2-21.4c0.3-3.4,1.8-6.6,4.3-9c4.9-0.8,7.4,1.4,10.2,5.5c2.8,4.1,4.6,7.4,9.2,9.3
			c4.3,1.8,8.2,5.7,14,1.5c1.9,2.1,3.1,4.7,3.5,7.5c0.4,4.2-3.7,6.5-0.7,13c3,6.5,8.7,10.9,9.3,13.4"/>
		<path d="M298.2,70.9c1.6,1.7,2.8,3.7,3.4,6c0.6,2.3,0.6,4.7,0,6.9c-0.8,3-2.7,5.6-3.2,8.6c-0.5,3.7,1.2,7.3,2.6,10.8
			c1.4,3.5,2.6,7.4,1.1,10.9c-0.6,1.4-1.7,2.6-2.3,4.1c-0.7,1.4-0.8,3.3,0.3,4.4c0.8,0.7,1.9,1.1,3,1.1c4.1,0.3,8.1-0.7,11.7-2.7
			c3.5-2,6.4-5.1,8.1-8.8l1.7,3.7c3.7-5.5,5.3-12.2,4.7-18.8c-0.6-6.6-3.5-12.8-8.1-17.6"/>
		<path d="M288.9,18.8c-0.8-0.7-1.4-1.6-1.8-2.6c-0.4-1-0.7-2.1-0.7-3.1c0-1.1,0.3-2.1,0.8-3.1c0.5-0.9,1.3-1.7,2.2-2.3
			c1.3-0.7,2.7-1,4.2-0.8c1.2,0.1,2.4,0.6,3.4,1.2c1,0.7,1.9,1.6,2.5,2.7c0.6,1.1,0.9,2.3,0.9,3.5c0,1.2-0.3,2.4-0.8,3.5
			c-0.6,1.1-1.4,2-2.4,2.8c-1,0.7-2.2,1.2-3.4,1.3c-1.2,0.2-2.5,0-3.6-0.4c-1.2-0.4-2.2-1.1-3-2"/>
	</g>
	<g id="Ear">
		<path class="st17" d="M293.2,53.5c-0.2-0.8,1.5-2.9,2.3-3.1c1.9-0.5,5.2-0.4,6.7,4.7c2.2,7.4-5.5,7.2-5.6,7
			C296.5,61.9,293.8,56.4,293.2,53.5z"/>
		<path class="st18" d="M297.6,58.7c0,0,0.2,0.1,0.4,0.1c0.3,0,0.7-0.1,1-0.3c0.7-0.5,1-2,0.6-3.3c-0.2-0.6-0.5-1.2-0.9-1.7
			c-0.1-0.2-0.3-0.4-0.5-0.5c-0.2-0.1-0.5-0.2-0.7-0.2c-0.2,0-0.3,0.1-0.4,0.2c-0.1,0.1-0.2,0.2-0.2,0.4c0,0.2,0,0.4,0,0.4
			c-0.1,0-0.2-0.1-0.2-0.4c0-0.2,0-0.4,0.2-0.5c0.2-0.2,0.4-0.4,0.7-0.4c0.3,0,0.6,0,0.9,0.2c0.3,0.1,0.6,0.3,0.7,0.6
			c0.5,0.5,0.9,1.2,1,1.9c0.4,1.5,0,3.1-1,3.8c-0.2,0.1-0.4,0.2-0.6,0.2c-0.2,0-0.4,0-0.6-0.1C297.7,58.9,297.6,58.8,297.6,58.7z"/>
	</g>
</g>
<g id="Computer" class="st0">
	<path class="st19" d="M281.8,209.3l-53,25.6l-97.1-26.5l47.7-26L281.8,209.3z"/>
	<path class="st9" d="M223.4,208.2l14.1,4.6l13-7.1l-21.7-7l-12.7,6.6L223.4,208.2z"/>
	<g class="st10">
		<path class="st20" d="M119.3,136.9c0.4,1.8,12.4,71.5,12.4,71.5l97.1,26.5L216,160.3L119.3,136.9z"/>
	</g>
	<path class="st9" d="M171,187.9c2.6-1,3.8-4.3,2.6-7.4c-1.2-3.1-4.3-4.7-6.9-3.7c-2.6,1-3.8,4.3-2.6,7.4
		C165.3,187.3,168.4,188.9,171,187.9z"/>
	<path class="st21" d="M221.7,193.7c0.1,0,1.8,9.2,3.7,20.6c1.9,11.4,3.4,20.6,3.3,20.6c-0.1,0-1.8-9.2-3.7-20.6
		C223.1,203,221.6,193.8,221.7,193.7z"/>
</g>
<g id="LeftArm" class="st0">
	<g transform="matrix(1.523085, 0, 0, 1.523085, -120.256294, -288.336456)" class="st22">
		<path d="M260.6,309.4c6.2-3.7,14.5-3.1,20.1-7.6c2.6-2.2,4.3-5.3,5.4-8.5s1.4-6.6,1.8-10l1.1,18.8c0.1,1.3,0.1,2.7-0.7,3.7
			c-0.7,0.8-1.8,1.1-2.9,1.3l-13.6,3c-3.7,0.8-7.6,1.6-11.1,0.3"/>
	</g>
	<path class="st6" d="M270,199c0,0,56.9,4.9,66.3-2c9.4-6.8,9.4-52.6,9.4-52.6l-28.2-2.6l-0.4,31.8
		c-1.9,1.6-51,9.7-55.2,9.4c0,0-25.7,2.7-27.1,2.7c-1.4,0-10.7,10.6-10.7,11.1c0,0.4,0.1,0.7,0.3,1.1c0.2,0.3,0.4,0.6,0.7,0.8
		c-0.3,0.4-0.5,0.9-0.5,1.4c0,0.5,0.2,1,0.6,1.4c0,0-0.4,1.8,1,2.2c1.4,0.4,1.5,1,3.2,0c1.7-1,9.8-7.4,9.8-7.4l6.1-0.5
		c0,0-14.9,8.5-13.6,10.4c1.3,1.9,4.2-0.3,7.5-2c3.3-1.8,8.8-5,9.8-5.2C250.1,198.8,270,199,270,199z"/>
	<path class="st7" d="M243,191c0,0.1-1.2,0.1-3,0.5c-2.4,0.7-4.6,1.8-6.6,3.2c-2,1.5-3.8,3.1-5.5,4.9c-0.7,0.8-1.4,1.5-2.2,2.1
		c0.1-0.2,0.3-0.5,0.5-0.7c0.3-0.4,0.8-1,1.5-1.7c1.7-1.9,3.5-3.6,5.5-5.1c2-1.5,4.3-2.6,6.8-3.2c0.7-0.2,1.5-0.3,2.3-0.3
		C242.5,190.9,242.8,190.9,243,191z"/>
	<path class="st7" d="M239.8,188.9c0,0.1-1,0.1-2.6,0.5c-2,0.6-3.9,1.6-5.6,2.9c-1.7,1.3-3.2,2.8-4.7,4.4c-0.6,0.7-1.2,1.3-1.9,1.9
		c0.5-0.8,1-1.5,1.6-2.1c1.4-1.7,2.9-3.2,4.6-4.5c1.7-1.3,3.7-2.3,5.8-2.8c0.6-0.1,1.3-0.2,1.9-0.2
		C239.4,188.8,239.6,188.8,239.8,188.9z"/>
	<path class="st23" d="M326,183.3c-0.1,0-0.3-0.8-0.8-1.9c-1.3-3-3.7-5.5-6.6-6.9c-1.1-0.6-1.9-0.8-1.9-0.8c0.7,0.1,1.4,0.3,2,0.6
		c1.5,0.7,2.9,1.7,4.1,2.9s2.1,2.7,2.7,4.2C325.8,182,326,182.6,326,183.3z"/>
</g>
<g id="Cat" class="st0">
	<path class="st2" d="M275.4,275.2c2.8,0,5.5-0.7,7.9-2c2.4-1.3,4.5-3.2,6.1-5.4c1.4-2.1,2.5-4.6,4.7-5.8c3.6-2,7.8,0.4,11.5,2.2
		c7.5,3.7,16.8,4.7,24.1,0.8c3.8-2,6.9-5.3,11-6.8c3.7-1.3,7.8-1,11.7-0.6c3.9,0.4,7.9,0.8,11.7-0.3c3.8-1.2,7.2-4.4,7.3-8.3
		c0.1-3.6-2.7-6.8-6-8.3c-3.3-1.5-7.1-1.5-10.7-1.3c-20.2,1-40,7.3-60.2,6.4c-3.9-0.2-8.2-0.6-11.5,1.6c-4.3,2.8-5.3,8.6-5.5,13.8
		c-0.2,5.2-0.1,10.8-3.4,14.8"/>
	<path class="st7" d="M274.5,227.1c-0.7,1.2-1.3,2.4-1.9,3.7c-0.8,2.7-3.7,12.2,0,17.1c4.2,5.6,27.9,5.4,29.8,5.4h0.2l34.4-2.4
		c0.4,0,0.7-0.1,1.1-0.2l29.5-10.1c0.7-0.2,1.4-0.7,1.8-1.3c0.4-0.4,0.6-0.9,0.8-1.5c0.2-0.5,0.2-1.1,0.2-1.6
		c-0.1-0.6-0.2-1.1-0.5-1.6c-0.3-0.5-0.6-0.9-1-1.3l-22.1-17.9c-0.5-0.4-1-0.6-1.6-0.8c-14-3.5-28.6-4-42.8-1.5
		C288.5,215.8,281.5,217.8,274.5,227.1z"/>
	<path class="st7" d="M366.4,239.9c-0.8,0.6-1.4,1.5-1.6,2.5c-0.2,1,0,2.1,0.6,3c1.4,2,4.5,2.3,6.6,1c2.1-1.3,3.2-3.7,3.7-6.1
		c0.3-1.7,0.3-3.7-1-4.8c-0.9-0.7-2.1-1.1-3.2-1.2c-3.3-0.4-6.6-0.7-9.9-0.7"/>
	<g transform="matrix(1.523085, 0, 0, 1.523085, -120.256294, -288.336456)" class="st22">
		<path d="M312.6,343.4c1.5,0.6,4.7,1.5,6.3,1.6c0.8,0.1,1.6-0.1,2.4-0.4c0.7-0.3,1.4-0.7,2-1.3c0.2-0.2,0.3-0.4,0.6-0.6
			c0.1-0.1,0.2-0.1,0.4-0.1c0.1,0,0.3,0,0.4,0.1c0.2,0.2,0.1,0.7,0,1c-0.5,0.9-1.2,1.6-2,2.1c-0.8,0.5-1.8,0.8-2.8,0.9
			C317.7,346.7,313.6,345.1,312.6,343.4"/>
	</g>
	<path class="st7" d="M356.3,206.8c0,0-13.9,2-10.1,17.1c3.8,15.2,19.2,14.5,21.9,14.1c0.9-0.2,1.7-0.5,2.5-1
		c2.1-1.2,3.8-2.9,5.1-4.9c1.3-2,2.1-4.3,2.3-6.7l0.1-0.7l8.1-7.6c0,0-2.3-1.3-10.6-0.3l-10.1-7.8c0,0,1.2-9.4-0.1-10.1
		C364.1,198.1,356.3,206.8,356.3,206.8z"/>
	<path class="st7" d="M272.4,232.9c-2.5,4.4-1.6,9.9-0.6,14.9c0.9,5,1.7,10.6-0.9,14.9c-1,1.6-2.4,2.9-4.1,3.8
		c-1.7,0.9-3.6,1.3-5.4,1.2c-3.2-0.2-6.1-1.9-9.1-3.1c-3-1.2-6.5-1.9-9.3-0.3c-3,1.7-4.1,5.7-3.2,9c0.9,3.3,3.6,5.9,6.6,7.5
		c6.3,3.4,14.3,3.1,20.8-0.3c6.4-3.4,11.1-9.5,13.4-16.3c2.3-6.8,2.3-14.3,0.8-21.4"/>
	<path class="st24" d="M361.7,221.5l0.3,4.2l3.4-1.3C365.4,224.3,364.1,221.8,361.7,221.5z"/>
	<g transform="matrix(1.523085, 0, 0, 1.523085, -120.256294, -288.336456)" class="st22">
		<path d="M287.7,355.1c0.7-0.3,1.4-0.8,1.9-1.4c0.5-0.6,0.8-1.4,0.9-2.2c0.2-1.6-0.3-3.2-1.3-4.5c-1.1-1.5-2.6-2.6-4.3-3.2
			c-1.7-0.6-3.6-0.6-5.3-0.1c-0.7,0.2-1.4,0.6-1.5,1.2c0,0.3,0,0.6,0.1,0.8c0.1,0.3,0.3,0.5,0.5,0.7c0.4,0.3,0.9,0.6,1.4,0.8
			c1.7,0.9,3.3,2.1,4.5,3.7c1.2,1.5,2.1,3.3,2.5,5.2"/>
	</g>
	<path class="st7" d="M299.3,233.8c2.6-0.4,5.3-0.2,7.8,0.6c2.5,0.8,4.8,2.2,6.7,4.1c1.9,1.9,3.2,4.2,4,6.8c0.8,2.5,0.9,5.2,0.4,7.8
		c2.1,0.7,4.4,0.2,6.6-0.2s4.6-0.7,6.6,0.4c2,1.1,3,4,1.5,5.6c-0.9,0.7-2,1.2-3.1,1.3c-6.2,1.2-12.7,2.3-18.8,0.8
		c-3.7-0.9-7-2.7-10.3-4.5c-3.7-2-3.3-1.3-7-3.3"/>
	<g transform="matrix(1.523085, 0, 0, 1.523085, -120.256294, -288.336456)" class="st22">
		<path d="M314.5,348.9l-2.2-0.6c-1-0.2-2.1-0.5-3-1c-0.5-0.2-0.9-0.6-1.2-1c-0.3-0.4-0.6-0.9-0.7-1.4c-0.2-0.9,0.3-1.9,1.1-2.2
			c0.7-0.2,1.4,0.2,2,0.6c1.7,1,3.5,2,5.2,3.1c0.4,0.2,0.7,0.5,1,0.9c0.1,0.3,0.1,0.6,0,0.9c-0.1,0.3-0.3,0.5-0.5,0.7
			c-0.5,0.3-1.1,0.5-1.7,0.5"/>
	</g>
	<path class="st7" d="M333.9,238.7c0.2,1.8,0.7,3.6,1.6,5.2c0.9,1.6,2.1,3,3.6,4c3,2.1,6.6,3.3,10.3,3.2c3.6,0,7.4-0.8,10.9,0.2
		c2.3,0.7,4.2,2.2,6.4,3c2.2,0.8,5.1,0.6,6.4-1.5c1.1-1.8,0.3-4.4-1.4-5.8c-1.6-1.4-3.8-2-5.9-2.5l-9.6-2.4c-2-0.4-3.9-1.1-5.6-2.3
		c-1.6-1.2-2.7-3.4-2.1-5.3"/>
	<path class="st24" d="M365.8,228.2c-0.6,0.3-1.2,0.3-1.8,0.1c-0.7-0.1-1.3-0.5-1.7-1c-0.3-0.3-0.4-0.7-0.4-1.2
		c0-0.2,0.1-0.5,0.2-0.7c0.1-0.2,0.3-0.4,0.6-0.5l0.2,0.4c-0.1,0-0.2,0.1-0.3,0.1c-0.8,0.3-1.7,0.3-2.5-0.1
		c-0.6-0.3-1.2-0.8-1.5-1.4c-0.2-0.3-0.3-0.6-0.3-0.9c0-0.3,0-0.6,0.1-0.9c0.1,0.6,0.3,1.2,0.5,1.7c0.3,0.5,0.8,1,1.4,1.2
		c0.7,0.3,1.5,0.3,2.2,0l0.2-0.1l0.2,0.4c-0.1,0.1-0.3,0.2-0.4,0.3c-0.1,0.1-0.1,0.3-0.1,0.5c0,0.3,0.1,0.6,0.3,0.9
		c0.4,0.4,0.9,0.8,1.5,0.9C364.7,228.1,365.2,228.2,365.8,228.2z"/>
	<path class="st24" d="M373.1,227.7c0,0.1-0.3,0.2-0.8,0.4c-0.7,0.2-1.5,0.1-2.2-0.2c-0.7-0.3-1.3-0.7-1.7-1.4
		c-0.3-0.5-0.4-0.8-0.3-0.8c0,0,0.2,0.3,0.6,0.7c0.4,0.5,1,0.9,1.6,1.1C371.2,227.7,372.2,227.8,373.1,227.7z"/>
	<path class="st24" d="M346.3,208.4c0,0,2.7,3,6,6.8c3.3,3.8,5.9,6.9,5.9,7c0,0-2.7-3-6-6.8C349,211.6,346.3,208.5,346.3,208.4z"/>
	<path class="st24" d="M350.1,203.9c0,0,1.9,3.8,4.2,8.5c2.3,4.7,4.1,8.6,4,8.6c0,0-1.9-3.8-4.2-8.5
		C351.8,207.7,350.1,203.9,350.1,203.9z"/>
	<path class="st24" d="M332.8,259c-0.1-0.3-0.2-0.7-0.3-1c-0.4-0.7-1.1-1.3-1.9-1.5c-0.8-0.2-1.7-0.3-2.5-0.3
		c-0.6,0-1.1,0.1-1.1,0.1c0,0,0.1,0,0.3-0.1c0.2,0,0.4-0.1,0.8-0.1c0.9-0.1,1.7,0,2.6,0.2c0.4,0.1,0.8,0.4,1.1,0.6
		c0.3,0.3,0.6,0.6,0.8,1c0.1,0.2,0.2,0.5,0.2,0.8C332.8,258.9,332.8,258.9,332.8,259z"/>
	<path class="st24" d="M333.2,256.1c0,0-0.1-0.4-0.5-0.8c-0.4-0.7-1.1-1.2-1.8-1.4c-0.7-0.3-1.5-0.3-2.3,0c-0.6,0.2-0.8,0.4-0.9,0.4
		c0.1-0.1,0.1-0.1,0.2-0.2c0.2-0.1,0.4-0.3,0.6-0.3c0.8-0.3,1.6-0.3,2.4,0c0.8,0.3,1.4,0.8,1.8,1.5c0.1,0.2,0.2,0.4,0.3,0.7
		C333.2,255.9,333.2,256,333.2,256.1z"/>
	<path class="st24" d="M282.4,234.9c-0.5,0.7-0.9,1.4-1.2,2.2c-0.2,0.9-0.3,1.8-0.2,2.7c0.1,1.1,0.4,2.2,0.7,3.3
		c0.3,1.2,0.7,2.3,0.8,3.3c0.2,0.9,0.2,1.9,0.2,2.8c-0.1,0.6-0.2,1.2-0.4,1.8c-0.1,0.2-0.2,0.4-0.3,0.6c0,0,0.1-0.2,0.3-0.6
		c0.2-0.6,0.3-1.2,0.4-1.8c0.1-0.9,0-1.8-0.2-2.7c-0.2-1-0.5-2.1-0.8-3.3c-0.3-1.1-0.6-2.2-0.7-3.4c-0.1-0.9,0-1.9,0.2-2.8
		c0.2-0.6,0.5-1.2,0.8-1.7C282.1,235.2,282.2,235.1,282.4,234.9z"/>
	<path class="st24" d="M336.1,233.9c0,0.1,0,0.1,0,0.2c0,0.2,0,0.3-0.1,0.5c-0.1,0.6-0.1,1.2-0.1,1.9c0,0.9,0.1,1.9,0.2,2.8
		c0.2,1.1,0.5,2.2,0.8,3.3c0.4,1.1,0.9,2.1,1.5,3c0.5,0.8,1.1,1.5,1.7,2.2c0.4,0.5,0.9,0.9,1.3,1.3l0.4,0.3l0.1,0.1
		c-0.7-0.5-1.4-1.1-1.9-1.7c-0.6-0.7-1.2-1.4-1.7-2.2c-0.6-1-1.1-2-1.6-3.1c-0.4-1.1-0.7-2.2-0.8-3.3c-0.1-0.9-0.2-1.9-0.2-2.8
		C335.8,235.6,335.9,234.7,336.1,233.9z"/>
	<path class="st24" d="M363.6,244.1c0,0-0.3-0.1-0.7-0.3c-0.7-0.2-1.3-0.4-2-0.6c-1.7-0.5-4.2-0.7-6.8-1.5c-1.2-0.4-2.4-1-3.4-1.9
		c-0.8-0.7-1.4-1.6-1.8-2.6c-0.3-0.7-0.4-1.4-0.4-2.1c0-0.3,0.1-0.5,0.1-0.8c-0.2,1,0,1.9,0.3,2.8c0.4,1,1,1.8,1.8,2.5
		c1,0.8,2.1,1.4,3.3,1.8c2.6,0.8,5.1,1.1,6.8,1.6c0.7,0.2,1.4,0.4,2,0.7C363.2,243.9,363.4,244,363.6,244.1z"/>
	<path class="st24" d="M372.2,254.2c0,0-0.2-0.3-0.5-0.8c-0.9-1.2-2.2-2.1-3.7-2.5c-0.6-0.2-0.9-0.2-0.9-0.2c0,0,0.1,0,0.3,0
		c0.2,0,0.5,0.1,0.7,0.1c0.8,0.2,1.5,0.5,2.1,0.9c0.7,0.4,1.2,1,1.7,1.6c0.1,0.2,0.3,0.4,0.4,0.6
		C372.1,254.1,372.2,254.2,372.2,254.2z"/>
	<path class="st24" d="M374,251.6c0,0-0.1-0.3-0.4-0.8c-0.4-0.6-0.9-1.1-1.6-1.4c-0.7-0.3-1.4-0.4-2.1-0.3c-0.6,0.1-0.8,0.2-0.9,0.2
		c0.1-0.1,0.1-0.1,0.2-0.1c0.2-0.1,0.4-0.1,0.7-0.2c0.7-0.1,1.5,0,2.2,0.3c0.7,0.3,1.2,0.9,1.6,1.5c0.1,0.2,0.2,0.4,0.3,0.6
		C373.9,251.4,374,251.5,374,251.6z"/>
	<path class="st24" d="M371.5,239.4c-0.5-0.1-1-0.2-1.5-0.2c-1.2,0-2.4,0.3-3.4,1c-0.5,0.4-1,0.8-1.4,1.4c-0.3,0.5-0.4,1-0.5,1.5
		c0,0.5,0,1,0.1,1.5c-0.2-0.5-0.2-1-0.2-1.5c0-0.6,0.2-1.1,0.5-1.6c0.4-0.6,0.8-1.1,1.4-1.4c1-0.7,2.2-1.1,3.5-1
		c0.4,0,0.7,0.1,1.1,0.2C371.3,239.3,371.4,239.3,371.5,239.4z"/>
	<path class="st24" d="M370.6,241.8c-0.2,0.2-0.4,0.4-0.6,0.5c-0.3,0.1-0.6,0.2-0.9,0.2c-0.3,0-0.6,0-0.9-0.2
		c-0.3-0.1-0.6-0.3-0.8-0.5c-0.2-0.2-0.4-0.5-0.5-0.8c-0.1-0.2-0.2-0.5-0.1-0.8c0.1,0.2,0.1,0.5,0.2,0.7c0.2,0.6,0.7,1,1.3,1.2
		c0.6,0.2,1.2,0.2,1.7,0C370.3,242,370.5,241.8,370.6,241.8z"/>
	<path class="st24" d="M369.9,243.9c-0.2,0.2-0.5,0.3-0.8,0.4c-0.7,0.2-1.4,0.2-2.1,0c-0.7-0.2-1.3-0.6-1.7-1.1
		c-0.2-0.2-0.3-0.5-0.4-0.7c0,0,0.2,0.3,0.5,0.6c0.5,0.5,1,0.8,1.7,1c0.6,0.2,1.3,0.2,2,0C369.6,244,369.9,243.9,369.9,243.9z"/>
	<path class="st24" d="M373.5,249.5c-0.3-0.5-0.6-1-1-1.4c-1.1-0.9-2.3-1.6-3.6-2.1c-1.5-0.6-2.9-1.1-4-1.4l-1.2-0.4
		c-0.1,0-0.3-0.1-0.4-0.2c0.2,0,0.3,0.1,0.5,0.1l1.2,0.4c1,0.3,2.4,0.8,4,1.4c1.3,0.5,2.6,1.2,3.6,2.1c0.3,0.3,0.6,0.6,0.8,1
		C373.3,249.2,373.4,249.3,373.5,249.5z"/>
	<path class="st24" d="M361.4,236.7c-0.9-0.4-1.7-0.9-2.4-1.5c-2-1.5-3.6-3.4-4.7-5.6l0.2-0.1c0.4,1.4,1,2.6,1.9,3.7l0.3,0.4
		l-0.4-0.2l-0.5-0.3c-3.1-1.8-5.5-4.6-6.9-7.8c-0.4-1-0.7-2-1-3.1c-0.1-0.8-0.2-1.2-0.2-1.2s0,0.1,0.1,0.3c0.1,0.2,0.1,0.5,0.2,0.8
		c0.2,1,0.6,2.1,1,3c1.4,3.2,3.8,6,6.9,7.7l0.5,0.3l-0.1,0.1c-0.9-1.1-1.5-2.4-1.9-3.8l-0.2-0.7l0.3,0.6c1.1,2.2,2.7,4,4.6,5.6
		c0.5,0.4,1.1,0.8,1.7,1.2l0.5,0.3L361.4,236.7z"/>
	<path class="st24" d="M318.3,230.3c-0.1,0-0.2-0.1-0.3-0.1c-0.2-0.1-0.5-0.2-0.8-0.4c-0.9-0.4-1.8-1-2.7-1.6
		c-0.8-0.6-1.6-1.3-2.3-2.1c-0.2-0.2-0.4-0.5-0.6-0.7c-0.1-0.2-0.2-0.3-0.2-0.3c0,0,0.3,0.4,0.8,0.9c0.7,0.8,1.5,1.5,2.3,2.1
		c0.8,0.6,1.7,1.2,2.6,1.6C317.9,230.1,318.4,230.3,318.3,230.3z"/>
	<path class="st24" d="M318.3,229.2c-0.7-0.5-1.4-1-2-1.6c-0.7-0.5-1.3-1.1-1.9-1.7c0.7,0.5,1.4,1,2,1.6
		C317.1,227.9,317.7,228.5,318.3,229.2z"/>
	<path class="st24" d="M320,228.7c-0.5-0.2-1-0.5-1.4-0.8c-0.4-0.3-0.8-0.7-1.1-1.2c0,0,0.5,0.5,1.2,1.1
		C319.4,228.3,320,228.7,320,228.7z"/>
	<g transform="matrix(1.523085, 0, 0, 1.523085, -120.256294, -288.336456)" class="st22">
		<path class="st16" d="M288.7,328.2c1.7,0,0.5,2.8-0.2,4.1c-0.4,0.7-0.9,1.2-1.5,1.6c-0.6,0.4-1.3,0.7-2,0.8
			c-1.4,0.2-2.9-0.2-4.3,0c-3,0.6-4.6,3.8-7.4,5.1c-0.9,0.4-2,0.6-3,0.4c-1-0.1-2-0.5-2.8-1.1c-1.6-1.2-2-4.6-1.7-6.6
			C265.7,332.7,271.3,328.6,288.7,328.2z"/>
	</g>
	<g transform="matrix(1.523085, 0, 0, 1.523085, -120.256294, -288.336456)" class="st22">
		<path class="st16" d="M299.9,346c0.7-0.6,1.8-0.4,2.7-0.3c0.9,0.2,1.7,0.6,2.5,1.2c0.4,0.2,0.7,0.5,1,0.9c0.3,0.4,0.4,0.8,0.6,1.2
			c0.1,1-0.6,2-1.2,2.8c-0.2,0.3-0.5,0.6-0.9,0.9c-0.2,0.1-0.4,0.2-0.6,0.3c-0.2,0-0.4,0.1-0.6,0c-0.4-0.2-0.8-0.5-1.1-0.8
			c-0.9-1.1-1.6-2.3-2.2-3.6C299.8,347.8,299.5,346.8,299.9,346"/>
	</g>
	<path class="st24" d="M318.2,253.1c0,0,0-0.1,0-0.3c0-0.2,0.1-0.5,0.1-0.8c0.2-1.1,0.2-2.2,0.1-3.3c-0.1-1.6-0.6-3.2-1.2-4.7
		c-0.8-1.8-1.9-3.5-3.1-5.1c-1.4-1.5-3-2.6-4.8-3.5c-1.5-0.7-3-1.2-4.6-1.6c-1.4-0.4-2.5-0.6-3.2-0.7l-0.8-0.2c-0.1,0-0.2,0-0.3-0.1
		c1.5,0.2,3,0.5,4.4,0.8c1.6,0.4,3.1,0.9,4.6,1.6c1.8,0.8,3.5,2,4.9,3.5c1.3,1.6,2.3,3.3,3.2,5.1c0.7,1.5,1.1,3.1,1.2,4.7
		c0.1,1.1,0,2.2-0.2,3.3C318.3,252.6,318.2,253.1,318.2,253.1z"/>
	<path class="st24" d="M361.1,218.7c0,0.1-0.4,0.1-1,0c-0.8-0.1-1.6-0.5-2.2-1.1c-0.6-0.6-1-1.3-1.2-2.1c-0.1-0.6-0.1-1,0-1
		c0.1,0,0.1,0.4,0.3,0.9c0.3,0.7,0.7,1.4,1.2,1.9c0.6,0.5,1.2,0.9,1.9,1.1C360.8,218.6,361.1,218.6,361.1,218.7z"/>
	<path class="st24" d="M364.1,227c-0.1,0-0.2-0.1-0.3-0.3c0-0.1,0-0.1,0-0.2c0-0.1,0.1-0.1,0.1-0.1c0.1,0,0.2,0.1,0.3,0.3
		C364.3,226.9,364.3,227,364.1,227z"/>
	<path class="st24" d="M365.4,226.6c-0.1,0-0.1,0-0.2,0c-0.1,0-0.1-0.1-0.1-0.1c0-0.1-0.1-0.1-0.1-0.2s0-0.1,0.1-0.2
		c0.1,0,0.1,0,0.2,0c0.1,0,0.1,0.1,0.1,0.1c0,0,0.1,0.1,0.1,0.2C365.5,226.5,365.4,226.6,365.4,226.6z"/>
	<path class="st24" d="M365.4,227.5C365.3,227.5,365.3,227.6,365.4,227.5c-0.1,0.1-0.1,0.1-0.1,0.1c0,0-0.1,0-0.1,0c0,0,0,0-0.1,0
		c0,0-0.1-0.1-0.1-0.1c0-0.1,0-0.1,0.1-0.1c0,0,0.1-0.1,0.1-0.1s0.1,0,0.1,0.1c0,0,0,0,0,0.1c0,0,0,0.1,0,0.1
		C365.4,227.4,365.4,227.4,365.4,227.5C365.4,227.5,365.4,227.5,365.4,227.5z"/>
	<path class="st24" d="M360.1,223.7c-0.1,0.1-0.3,0.1-0.4,0c-0.2-0.1-0.2-0.3-0.2-0.4c0.1-0.1,0.3-0.1,0.4,0
		C360.1,223.4,360.2,223.6,360.1,223.7z"/>
	<path class="st24" d="M360.7,222.4c-0.1,0-0.2-0.1-0.2-0.3c0,0,0-0.1,0-0.1c0,0,0-0.1,0-0.1c0,0,0-0.1,0.1-0.1c0,0,0.1,0,0.1,0
		c0.1,0,0.2,0.1,0.2,0.3c0,0.1,0,0.1,0,0.2C360.8,222.4,360.7,222.4,360.7,222.4z"/>
	<path class="st24" d="M360.9,224.1c-0.1,0-0.2-0.1-0.2-0.2c0-0.1,0.1-0.1,0.2-0.1c0.1,0,0.2,0.1,0.2,0.2
		C361.1,224,361,224.1,360.9,224.1z"/>
	<path class="st24" d="M382.8,239c0,0-3.6-2.3-8-5.1c-4.4-2.9-7.9-5.2-7.9-5.3c0,0,3.6,2.3,8,5.1C379.3,236.6,382.8,239,382.8,239z"
		/>
	<path class="st24" d="M388.2,235.9H388c-0.1,0-0.4-0.1-0.6-0.1c-0.5-0.1-1.3-0.3-2.2-0.6c-2.4-0.8-4.8-1.6-7.1-2.6l-7-2.9l-2.1-0.9
		l-0.6-0.3l-0.2-0.1c0.1,0,0.1,0,0.2,0.1l0.6,0.2l2.1,0.8l7,2.8c2.7,1.1,5.2,2.1,7.1,2.7c0.9,0.3,1.7,0.5,2.2,0.6l0.6,0.2
		L388.2,235.9z"/>
	<g transform="matrix(1.523085, 0, 0, 1.523085, -120.256294, -288.336456)" class="st22">
		<path d="M315,325.1c0.7-0.1,1.4-0.4,1.9-0.9c0.5-0.5,0.8-1.1,0.9-1.8c0.1-0.7,0.2-1.3,0.1-2l-1.9,1.8c-0.4,0.4-0.8,0.8-1.2,1.2
			c-0.2,0.2-0.4,0.5-0.5,0.7c0,0.1-0.1,0.3,0,0.4c0,0.1,0.1,0.3,0.2,0.4c0,0.1,0.1,0.1,0.2,0.1C314.8,325.1,314.9,325.1,315,325.1
			c0,0,0.1,0,0.1,0c0.1,0,0.1-0.1,0.2-0.1"/>
	</g>
	<g transform="matrix(1.523085, 0, 0, 1.523085, -120.256294, -288.336456)" class="st22">
		<path d="M327.4,336.4c0-1.2,0.5-2.3,1.3-3.1c0.8-0.8,1.9-1.3,3.1-1.3c-0.9,1.9-3.2,2.7-4.4,4.3"/>
	</g>
</g>
<g id="Lamp" class="st0">
	<path class="st10" d="M81.5,208.1c-1.4-0.6-2.5-1.5-3.4-2.7c-0.9-1.2-1.4-2.6-1.5-4.1c-0.1-1.5,0.2-2.9,0.8-4.2
		c0.7-1.3,1.7-2.4,2.9-3.2c4.1-2.4,8.7-3.9,13.4-4.2c5.1-0.5,10.3,0.5,14.9,2.7c5.8,2.8,6,12.1-0.6,15.3
		C98.6,212.3,90.6,212,81.5,208.1z"/>
	<path class="st10" d="M91.2,94.7l0.8-0.1l2.8-0.3h0.1v0.1c0.3,11.1,0.9,51,1.6,98.5c0,0.1,0,0.2,0,0.3v0.2h-0.2l-3.1,0.3h-0.2v-0.2
		l-1.3-70.1c-0.2-8.9-0.3-16.1-0.4-21.1c0-2.5-0.1-4.4-0.1-5.7c0-0.6,0-1.1,0-1.5C91.2,94.8,91.2,94.6,91.2,94.7c0,0,0,0.1,0,0.5
		c0,0.3,0,0.8,0.1,1.5c0,1.3,0.1,3.3,0.1,5.7c0.1,5,0.3,12.2,0.5,21.1c0.4,17.9,0.9,42.5,1.5,70l-0.2-0.2l3.1-0.3l-0.2,0.2v-0.3
		c-0.7-47.5-1.2-87.5-1.2-98.6l0.1,0.1l-2.7,0.2L91.2,94.7z"/>
	<path class="st10" d="M97.4,101.8c0,0.9-0.2,1.9-0.7,2.6c-0.5,0.8-1.2,1.4-2.1,1.8c-0.8,0.4-1.8,0.5-2.7,0.4
		c-0.9-0.2-1.8-0.6-2.5-1.2c-0.7-0.6-1.2-1.5-1.4-2.4c-0.2-0.9-0.2-1.9,0.2-2.7c0.3-0.9,0.9-1.6,1.7-2.2c0.8-0.5,1.7-0.8,2.6-0.9
		c1.2,0,2.5,0.4,3.4,1.3C96.8,99.4,97.3,100.6,97.4,101.8z"/>
	<path class="st25" d="M172.9,51.6c0,0-11.3,6.4-3.5,33.4c0,0,30.8-0.4,42.4-18c0,0-11-22.9-24.9-20.7L172.9,51.6z"/>
	<path class="st25" d="M173.3,46.8l-2.5-6.5c-0.3-0.7-0.4-1.4-0.3-2.1c0-0.7,0.2-1.4,0.6-2.1c0.3-0.7,0.8-1.2,1.4-1.7
		c0.6-0.5,1.2-0.8,1.9-1c1.2-0.3,2.6-0.2,3.7,0.4c1.1,0.6,2,1.6,2.5,2.8l2.8,7.1L173.3,46.8z"/>
	<path class="st10" d="M172.9,51.6l0.2-5.2l9.7-4.1l4.2,4L172.9,51.6z"/>
	<path class="st26" d="M112,195.4c0,0.2,0,0.3,0,0.5c0,0.4-0.1,0.9-0.2,1.3c-0.3,1.6-1,3.2-2.1,4.5c-1.5,1.9-3.6,3.4-5.8,4.3
		c-2.8,1.1-5.7,1.7-8.7,1.8c-1.6,0.1-3.1,0-4.6,0c-1.4-0.1-2.9-0.2-4.3-0.5c-2.4-0.4-4.7-1.5-6.6-3.1c-1.2-1.1-2.1-2.6-2.5-4.2
		c-0.1-0.4-0.1-0.9-0.2-1.3c0-0.2,0-0.3,0-0.5c0.1,0.6,0.2,1.2,0.3,1.8c0.4,1.6,1.3,2.9,2.5,4c1.8,1.6,4.1,2.6,6.4,2.9
		c1.4,0.2,2.8,0.4,4.2,0.5c1.5,0.1,3,0.1,4.6,0c2.9,0,5.9-0.6,8.6-1.7c2.2-0.9,4.2-2.3,5.8-4.2c1-1.3,1.7-2.7,2.1-4.3
		C111.9,196.1,111.9,195.4,112,195.4z"/>
	<path class="st27" d="M207,61.4c-0.1,0.1-0.2,0.2-0.3,0.3l-0.9,0.8c-0.4,0.4-0.8,0.8-1.5,1.3c-0.6,0.5-1.2,1.1-2,1.7
		c-0.8,0.6-1.6,1.2-2.5,1.9c-0.9,0.7-2,1.3-3,2c-2.4,1.4-4.9,2.7-7.4,3.9c-2.6,1.1-5.2,2-7.9,2.8c-1.2,0.3-2.4,0.7-3.6,0.8
		c-1.1,0.2-2.2,0.4-3.1,0.6c-1,0.2-1.8,0.3-2.6,0.3c-0.8,0.1-1.4,0.1-2,0.2l-1.2,0.1c-0.1,0-0.3,0-0.4,0c0.1,0,0.3-0.1,0.4-0.1
		l1.2-0.1c0.5-0.1,1.2-0.1,2-0.2c0.8-0.1,1.6-0.2,2.6-0.4c0.9-0.2,2-0.4,3.1-0.6c1.1-0.3,2.3-0.6,3.5-0.9c5.3-1.5,10.4-3.8,15.2-6.6
		c1.1-0.7,2.1-1.3,3.1-2c0.9-0.7,1.8-1.3,2.5-1.8c0.7-0.6,1.5-1.1,2.1-1.6c0.6-0.5,1.1-0.9,1.5-1.3l0.9-0.8
		C206.8,61.5,206.9,61.4,207,61.4z"/>
	<path class="st10" d="M85.2,104l0.4-0.3l1.4-0.9l5.3-3.5l19.4-12.8L176.3,44l0.2-0.1l0.1,0.2l2,3.2l0.2,0.3l0.1,0.2l-0.2,0.1
		c-44.7,28.9-82.1,52.9-91.8,59.1l-0.1,0v0l-1.3-2.2C85.4,104.3,85.3,104,85.2,104c0.1,0,0.2,0.2,0.5,0.7c0.3,0.5,0.7,1.2,1.3,2.1
		h-0.1c9.6-6.3,46.9-30.5,91.6-59.4l-0.1,0.3c-0.1-0.1-0.1-0.2-0.2-0.3c-0.7-1.1-1.3-2.2-2-3.2l0.3,0.1L112,86.6L92.4,99.4l-5.3,3.5
		l-1.4,0.9C85.4,103.9,85.2,104,85.2,104z"/>
</g>
<g id="Coffee" class="st0">
	<path class="st28" d="M228.3,243.1c-2.5,0.6-3.6,3.8-2.8,6.2c0.8,2.4,3,4.1,5.2,5.3c6.7,3.8,15.5,4.6,21.7,0.2
		c2.7-2,4.8-5.4,3.7-8.6c-1-2.8-4-4.2-6.8-5c-7.6-2-15.7-1.4-22.9,1.8"/>
	<path class="st29" d="M224.7,223.1c0,0-4.6,30.4,16.7,29.4c19.9-0.9,12.9-30.5,12.9-30.5L224.7,223.1z"/>
	<path class="st29" d="M251,244.1c1.7,1.1,3.6,1.8,5.6,2c2,0.2,4-0.1,5.9-0.8c1.8-0.8,3.5-2,4.7-3.6c1.2-1.6,2.1-3.4,2.4-5.4
		c0.3-2,0.1-4-0.7-5.9c-0.7-1.9-1.9-3.5-3.5-4.8c-1.6-1.2-3.5-2-5.5-2.2c-2-0.2-4,0.1-5.8,0.9l-0.3,3.5c1.1-0.5,2.4-0.7,3.6-0.6
		c1.2,0.1,2.4,0.6,3.4,1.4c1,0.8,1.7,1.8,2.2,3c0.5,1.2,0.6,2.4,0.4,3.7c-0.2,1.2-0.7,2.4-1.5,3.4c-0.8,1-1.8,1.8-2.9,2.2
		c-1.2,0.5-2.4,0.6-3.7,0.5c-1.2-0.1-2.4-0.5-3.5-1.2L251,244.1z"/>
	<path class="st30" d="M254.3,222c0.1,1.9-6.5,3.7-14.7,4.1c-8.2,0.4-14.9-0.8-15-2.7c-0.1-1.9,6.5-3.7,14.7-4.1
		C247.5,218.9,254.2,220.1,254.3,222z"/>
	<g transform="matrix(1.523085, 0, 0, 1.523085, -120.256294, -288.336456)" class="st11">
		<path class="st31" d="M246.5,338.6c-0.6,0.2-1.1,0.6-1.4,1.1c-0.4,0.5-0.6,1.1-0.7,1.7c0,1.2,0.2,2.4,0.8,3.5
			c0.2,0.3,0.4,0.7,0.8,0.6c0.4-0.1,0.5-0.5,0.5-0.9C246.8,342.6,246.8,340.6,246.5,338.6"/>
	</g>
	<path class="st2" d="M249.8,224.7c6.9-1.8-14.3-1.1-21.2,0.8C228.6,225.6,239.8,227.4,249.8,224.7z"/>
</g>
</svg>
